<svg id="Layer_1" data-name="Layer 1" xmlns="http://www.w3.org/2000/svg" viewBox="0 0 1417 1417"><defs><style>.cls-1{fill:#fff;}.cls-2{fill:#ef4f92;}.cls-3{font-size:72px;fill:#2d3388;font-family:Roboto-Black, Roboto;font-weight:800;}.cls-4,.cls-6{fill:#5f469c;}.cls-4{opacity:0.35;}.cls-5{font-size:48px;fill:#a3b1d5;font-family:Roboto-Regular, Roboto;}.cls-6{opacity:0.24;}</style></defs><rect class="cls-1" width="1416.29" height="1416.29"/><path class="cls-2" d="M953.39,443.74a222.43,222.43,0,0,0-1.29-22.36c-1.1-9.16-7.44-12.74-16.05-9.45a68.61,68.61,0,0,0-8.51,4.41c-69.39,38.42-138.85,76.71-208,115.48-7.56,4.23-13.25,3.69-20.49,0Q589.86,477,480.47,422.63c-16.5-8.23-23.42-4.09-23.46,13.95q-.13,75.24-.15,150.47c-.06,40.19.12,80.39-.55,120.58-.16,9.68-1.14,17.91,9.47,23.26,78.74,39.72,157.28,79.8,236,119.6,13,6.55,20.75,1.68,21-12.81.28-14.94-.38-29.9.22-44.81.45-11.07-4-17.45-13.94-22.38-46.19-22.86-92.09-46.32-138-69.77-3.53-1.8-8.63-4.91-8.94-7.85-1.1-10.36-.43-20.91-.43-33,5.07,2.11,8.32,3.24,11.36,4.77,31.45,15.81,62.82,31.79,94.32,47.49,13.76,6.86,21.22,2.22,21.38-13,.16-14.59-.34-29.18.17-43.75.35-9.86-3.6-15.56-12.48-19.91C641,618,605.86,600.1,570.7,582.18c-3.26-1.65-8-4.43-8.31-7.11-1-9.23-.39-18.65-.39-29.63,6,2.84,9.81,4.59,13.57,6.46,41,20.5,82.16,40.76,122.93,61.73,9.7,5,17.42,4.55,26.79-.73,36.85-20.77,74.09-40.88,111.21-61.18,3.88-2.12,7.94-3.9,14-6.86,0,11.1-.57,19.94.16,28.67.67,7.91-2.36,12.08-9.25,15.73-32.69,17.3-65,35.35-97.7,52.59-8.72,4.6-12.39,10.56-12,20.28.58,14.92.26,29.87.48,44.81.22,15.69,7.26,20.07,21,12.87,16.07-8.41,31.94-17.22,47.93-25.78,16.19-8.66,32.43-17.24,50.25-26.71.38,4.85.74,7.3.75,9.76.2,32.72.16,65.45.6,98.17.21,15.93,8.7,20.44,22.08,12.15C898.08,773,921,758,944.61,744.09c10.15-6,13.86-13.35,13.61-25.11C956.31,627.24,955,535.49,953.39,443.74ZM640,455.83c.06,4.11,5.5,9.59,9.93,11.92,18.2,9.54,36.9,18.18,55.49,27,3.13,1.49,6.65,2.19,10.17,3.32,2.81-1,5.62-1.56,8.05-2.85,34.17-18.12,68.41-36.12,102.27-54.79,3.85-2.12,7.67-8.1,7.65-12.27,0-3.5-5-8.44-8.92-10.21-17.78-8-35.82-15.49-54.1-22.29a22.17,22.17,0,0,0-15.13.43q-53.14,23.25-105.7,47.8C645.28,445.94,639.91,451.8,640,455.83Zm-81.49-33c13.7,7.44,28,13.8,42.12,20.43a74.44,74.44,0,0,0,8.66,2.94,52.21,52.21,0,0,0,6.62-2c28.38-13,56.82-25.91,85-39.45,3.37-1.62,7.12-7.13,6.81-10.48-.37-4-4.15-9.26-7.85-11-15.39-7.21-31.16-13.66-47.12-19.51-4.13-1.52-10-1.13-14.12.63-26.73,11.44-53.31,23.24-79.62,35.62-4.12,1.94-9,7.35-9.12,11.27S554.46,420.65,558.48,422.83Z"/><text class="cls-3" transform="translate(310.29 957.56)">Easy Form Builder Player</text><path class="cls-4" d="M0,782.42V1417H1417V858.66s-255.9,515.69-788.27,289.89C461.28,1077.52,0,782.42,0,782.42Z"/><text class="cls-5" transform="translate(486 1030.16)">By WhiteStudio.team</text><path class="cls-6" d="M0,858.66s217.55,460.86,617.55,315.69c430-156,799.45-152.92,799.45-152.92V1417H0Z"/></svg>