<svg id="Layer_1" data-name="Layer 1" xmlns="http://www.w3.org/2000/svg" viewBox="0 0 100.47 98.17"><defs><style>.cls-1{fill:#ff4b93;}</style></defs><title>logo</title><path class="cls-1" d="M400,869.87c0-1.5-.09-3-.26-4.48-.22-1.83-1.49-2.55-3.21-1.89a13.8,13.8,0,0,0-1.71.88Q374,875.92,353.2,887.49a3.84,3.84,0,0,1-4.1,0q-21.86-11-43.74-21.86c-3.3-1.65-4.69-.82-4.7,2.79q0,15.06,0,30.12c0,8,0,16.09-.11,24.13,0,1.94-.23,3.58,1.9,4.66,15.76,7.94,31.48,16,47.23,23.93,2.59,1.31,4.15.34,4.2-2.56s-.07-6,0-9a4.3,4.3,0,0,0-2.79-4.48c-9.25-4.58-18.43-9.27-27.62-14-.71-.36-1.73-1-1.79-1.57a65.1,65.1,0,0,1-.08-6.62c1,.42,1.66.65,2.27,1,6.29,3.16,12.57,6.36,18.88,9.5,2.75,1.37,4.24.44,4.28-2.61s-.07-5.84,0-8.75a3.84,3.84,0,0,0-2.5-4c-7.09-3.47-14.13-7.06-21.16-10.65-.65-.33-1.61-.88-1.66-1.42a54.54,54.54,0,0,1-.08-5.93c1.19.57,2,.92,2.71,1.29,8.21,4.11,16.44,8.16,24.6,12.36a5.07,5.07,0,0,0,5.37-.15c7.37-4.16,14.82-8.18,22.25-12.24.78-.43,1.59-.78,2.8-1.38,0,2.22-.11,4,0,5.74a2.88,2.88,0,0,1-1.85,3.15c-6.54,3.46-13,7.07-19.55,10.52a4,4,0,0,0-2.41,4.06c.12,3,.05,6,.1,9s1.45,4,4.21,2.58c3.21-1.69,6.39-3.45,9.59-5.16s6.49-3.45,10.06-5.35c.07,1,.14,1.46.15,2,0,6.54,0,13.09.12,19.64,0,3.19,1.74,4.09,4.42,2.43,4.66-2.88,9.25-5.88,14-8.66a5,5,0,0,0,2.72-5C400.59,906.59,400.32,888.23,400,869.87Zm-62.73,2.42c0,.82,1.1,1.92,2,2.38,3.64,1.91,7.38,3.64,11.1,5.4a16.81,16.81,0,0,0,2,.67,13.8,13.8,0,0,0,1.61-.57c6.84-3.63,13.69-7.23,20.47-11a3.36,3.36,0,0,0,1.53-2.45c0-.7-1-1.69-1.79-2-3.55-1.6-7.17-3.1-10.82-4.46a4.45,4.45,0,0,0-3,.09q-10.63,4.65-21.16,9.56A3.55,3.55,0,0,0,337.28,872.29ZM321,865.68c2.74,1.49,5.6,2.76,8.43,4.09a15.41,15.41,0,0,0,1.73.59,10.77,10.77,0,0,0,1.33-.4c5.68-2.61,11.37-5.18,17-7.9a2.7,2.7,0,0,0,1.36-2.09,3.15,3.15,0,0,0-1.57-2.2q-4.62-2.16-9.43-3.91A4.21,4.21,0,0,0,337,854c-5.35,2.29-10.67,4.65-15.94,7.13a2.35,2.35,0,0,0-.09,4.56Z" transform="translate(-300.5 -853.67)"/></svg>